<svg preserveAspectRatio="xMidYMid meet" xmlns="http://www.w3.org/2000/svg" width="1920" height="200" viewBox="0 0 1920 309.006"><defs><style>.cls-1{fill:#39450f;}.cls-2{fill:#18280b;}</style></defs><path class="cls-1" d="M1923.32-182.4866H2.8655V27.1448A94.4136,94.4136,0,0,0,12.05,39.2278a42.4325,42.4325,0,0,0-8.8047,6.46c-.13.1243-.251.2652-.38.3922V82.36A66.6035,66.6035,0,0,0,18.3439,70.84c-1.7328,14.6334,3.9285,31.7139,10.864,44.0416,11.0805-14.4762,16.4963-34.1767,15.6368-53.4193,1.0474.3566,2.0969.7,3.1561,1.0072a60.9325,60.9325,0,0,0,28.3984,14.055c-.4518.1962-.9039.3822-1.3546.5981C62.9224,82.9269,53.051,98.1109,47.5893,111.8791c15.253,2.7925,31.1813-1.4837,44.2518-10.9185a99.626,99.626,0,0,0,4.013,23.343c9.9923-7.94,17.6633-19.3826,22.3622-32.2723,4.1086,13.9881,15.781,26.3608,26.7558,33.8238a84.494,84.494,0,0,0-.67-39.4049,43.8058,43.8058,0,0,0,7.0754.7739,46.8371,46.8371,0,0,0,5.47-.2148c-2.6692,13.4718.2,29.7188,4.7531,42.2084,9.5114-8.6908,16.5037-20.6982,20.4472-33.9206,4.9082,13.6406,17.27,25.0883,28.6512,31.6905,3.76-22.0588-2.1977-45.7557-14.8089-62.788,1.0555-1.41,2.077-2.8549,3.02-4.371a90.2691,90.2691,0,0,0,24.0583,4.1466,97.9848,97.9848,0,0,0-3.6641,27.1918c11.6737-3.8162,22.1245-11.81,30.1637-22.275-.0042,14.769,7.6043,30.8114,15.9191,41.9459,9.775-16.918,12.6568-38.5944,8.7-58.35q4.6253-2.2908,9.0812-5A58.1768,58.1768,0,0,0,312.32,55.36c-.44.2944-.8923.5309-1.3283.8462C299.873,64.2516,292.324,81.1156,288.92,95.7384c15.4432-.1673,30.5353-7.4348,42.0668-19.2423a96.3244,96.3244,0,0,0,7.3165,22.2507c8.7109-9.7434,14.6286-22.4968,17.4071-36.1075,3.5217,7.5525,9.4716,14.0734,16.1849,19.2464a95.96,95.96,0,0,0-4.4279,29.6494c11.6739-3.8162,22.1244-11.81,30.1639-22.275-.0043,14.769,7.604,30.8114,15.9188,41.9459a81.2872,81.2872,0,0,0,10.2874-35.9532c8.1844,9.6345,21.0044,15.7659,32.1762,18.3944a80.72,80.72,0,0,0-8.032-30.2771,45.9663,45.9663,0,0,0,17.129.99,100.5129,100.5129,0,0,0-2.2684,23.8853c11.5932-4.13,21.8793-12.4027,29.7047-23.0818.2947,14.7653,8.2259,30.5985,16.7637,41.506,12.0538-21.9559,12.7034-51.3749,2.29-74.3174a85.6291,85.6291,0,0,0,10.1483-20.931,43.397,43.397,0,0,0,13.9055,7.0706c-.4922.49-1.0061.925-1.4858,1.4475-9.54,10.3987-14.0844,28.64-14.9439,43.7486,11.8761-2.8665,22.7852-9.9987,31.4383-19.7909-.898,14.7327,5.7207,31.3491,13.3413,43.1261A79.9056,79.9056,0,0,0,576.443,71.9868c7.5813,10.27,19.9988,17.4188,30.9842,20.9413A82.2382,82.2382,0,0,0,596.52,52.3944c30.0761,3.5119,61.5656-8.4461,83.2245-32.9225a134.2331,134.2331,0,0,0,5.3559,45.98,40.5385,40.5385,0,0,0-4.2347-2.1371c-12.2986-5.2881-28.4937-1.9439-40.6264,3.833a64.9809,64.9809,0,0,0,29.2674,23.8135c-11.857,5.5709-21.8626,19.7541-27.6616,32.84a53.5927,53.5927,0,0,0,20.5809.6611,90.0869,90.0869,0,0,0-6.7119,10.2426,55.87,55.87,0,0,0,35.8133.37c-7.0024,12.3643-8.234,30.5956-6.5479,45.1624,10.2006-5.0376,19.0084-13.3823,25.6516-23.6174,2.2879,13.2286,10.117,26.4473,18.2261,35.6937,6.9447-14.3959,9.1633-31.4935,6.9341-47.7465q3.258,2.7189,6.61,5.1583a108.7288,108.7288,0,0,0,30.82,15.5629,47.3765,47.3765,0,0,0-4.439,5.5343c-8.0675,11.9432-10.1679,30.7677-9.0368,45.8526,11.364-4.9054,21.2122-13.8592,28.4824-25.0483,1.0432,14.72,9.7643,29.9908,18.8413,40.3026a82.91,82.91,0,0,0,7.6488-38.1562,65.5352,65.5352,0,0,0,21.7092-16.386c-.8978,14.7328,5.7207,31.3492,13.341,43.1261a79.9047,79.9047,0,0,0,12.439-35.0368c7.5813,10.27,19.9987,17.4193,30.9841,20.9414a82.2385,82.2385,0,0,0-10.897-40.5153c14.0376,10.0139,30.5129,17.4513,47.194,22.3916a44.0787,44.0787,0,0,0-6.2714,5.59c-9.54,10.3987-14.0846,28.64-14.9441,43.7486,11.8761-2.8662,22.7851-9.9988,31.4383-19.7907-.8981,14.7328,5.7207,31.3488,13.341,43.1258a79.9047,79.9047,0,0,0,12.4389-35.0362c7.5813,10.27,19.9988,17.4187,30.9842,20.9411a82.1277,82.1277,0,0,0-8.5668-36.1548,59.0165,59.0165,0,0,0,18.8942-4.5944c-.3245.4521-.6777.8546-.9918,1.3248-8.0128,11.992-10.0274,30.829-8.8278,45.9066,14.4356-6.3314,26.409-19.1821,33.6786-34.8677a85.2859,85.2859,0,0,0,13.5476,17.9462,84.0533,84.0533,0,0,0,5.4811-40.8289c9.5963,9.7759,25.0577,13.81,37.7964,13.9859a75.33,75.33,0,0,0-27.5035-42.9521c1.4853-1.1238,2.9641-2.2591,4.4135-3.4442,22.14,7.6585,44.1868,9.6315,64.635,1.233a94.4359,94.4359,0,0,0,4.6962,31.4509c9.8038-8.2465,17.2051-19.9233,21.6022-32.9539,4.4328,13.8554,16.39,25.862,27.5342,32.982,4.6712-22.6063-.9522-47.4584-13.85-65.1951a128.8866,128.8866,0,0,0,22.3643-58.2221,80.7909,80.7909,0,0,0,23.7,20.6628,37.7618,37.7618,0,0,0-11.8514,2.51c-12.45,4.7947-23.2319,19.13-29.5285,32.4154a56.1205,56.1205,0,0,0,36.5227-2.9741c-.3247.4523-.6779.855-.992,1.3252-8.0129,11.992-10.0273,30.829-8.8278,45.9066,14.4355-6.3314,26.4089-19.1821,33.6787-34.8677a85.2758,85.2758,0,0,0,13.5476,17.9461,84.0546,84.0546,0,0,0,5.4809-40.8292c5.5722,5.6768,13.1126,9.4148,20.9634,11.5829a95.7853,95.7853,0,0,0,4.7544,29.582c9.804-8.2465,17.2053-19.9232,21.6025-32.9538,4.4329,13.8557,16.3894,25.862,27.534,32.982a84.2777,84.2777,0,0,0-1.1513-37.8374c10.5714,5.7647,24.439,6.3909,35.7079,4.39-7.6373-19.4942-23.1866-34.33-40.9045-40.41a97.7736,97.7736,0,0,0,12.1816-13.5259c15.99,17.4069,36.6116,21.0106,58.1372,19.4083-4.0812,13.7452-1.7462,31.3968,2.6331,44.8889,9.8038-8.2464,17.2053-19.9232,21.6024-32.9542,4.4331,13.8558,16.39,25.8623,27.5339,32.9823a85.43,85.43,0,0,0-8.4828-56.6577,93.2972,93.2972,0,0,0,14.5572-10.2048,60.4448,60.4448,0,0,0,30.2075,14.4334c-.4468.21-.8945.41-1.34.64-11.9827,6.1779-21.4969,21.6624-26.6358,35.5948,15.3123,2.3184,31.1354-2.45,43.9817-12.2864a99.2233,99.2233,0,0,0,4.5549,23.21c9.804-8.247,17.2054-19.9234,21.6026-32.9544,4.4331,13.8556,16.3894,25.8622,27.5341,32.9826a85.3132,85.3132,0,0,0-5.1459-49.61c2.7265.6545,5.4417,1.2386,8.1188,1.6829a98.1393,98.1393,0,0,0,15.2142,1.3,53.0349,53.0349,0,0,0-2.4143,5.6458c-4.99,14.0042-2.6292,32.7876,1.9732,46.9673,9.8039-8.2467,17.2053-19.9234,21.6024-32.9541,4.4329,13.8554,16.3894,25.8619,27.534,32.9823a84.2747,84.2747,0,0,0-1.1511-37.8377c10.5716,5.7647,24.4389,6.3909,35.708,4.39A71.238,71.238,0,0,0,1622.741,65.59a110.283,110.283,0,0,0,10.8789-7.4252c13.6992,15.0149,33.7354,22.608,53.4066,23.1765-2.6649,13.0725-.3734,28.7543,3.6032,41.005,9.8039-8.2464,17.2053-19.9232,21.6022-32.9541,4.4331,13.8557,16.39,25.8622,27.5339,32.9823a85.4163,85.4163,0,0,0-7.3528-54.4155,86.6742,86.6742,0,0,0,18.4184-17.539A60.4934,60.4934,0,0,0,1782.61,66.3262c-.4468.21-.8946.41-1.34.64-11.9829,6.178-21.4968,21.6627-26.6357,35.5949,15.3122,2.3187,31.1356-2.45,43.9817-12.2864a99.2071,99.2071,0,0,0,4.555,23.21c9.8039-8.2467,17.2054-19.9231,21.6024-32.9538,4.4329,13.8554,16.39,25.862,27.534,32.982a84.8612,84.8612,0,0,0-2.5974-42.83,87.7034,87.7034,0,0,0,20.4753-1.1421,52.38,52.38,0,0,0-3.2139,7.1267c-4.99,14.0045-2.6291,32.7879,1.9731,46.9676,9.8038-8.2467,17.2053-19.9235,21.6024-32.9541,4.4331,13.8557,16.3894,25.8619,27.5339,32.9823a84.2761,84.2761,0,0,0-1.1511-37.838,39.6114,39.6114,0,0,0,6.39,2.7592V55.253a62.2032,62.2032,0,0,0-10.3283-4.9748,102.9956,102.9956,0,0,0,10.3283-9.2621ZM338.5148,34.2308c-7.0909-5.495-14.9928-8.9573-23.91-9.2836a29.0193,29.0193,0,0,0-4.2374.1854A124.7772,124.7772,0,0,0,329.3885-2.0769a88.254,88.254,0,0,0,15.373,28.5689A57.2738,57.2738,0,0,0,338.5148,34.2308ZM1486.0029,50.5581c-7.9027-1.58-16.7182.3269-24.893,3.9254a103.5556,103.5556,0,0,0,13.8738-21.0556,101.71,101.71,0,0,0,18.8484,19.6543A38.3807,38.3807,0,0,0,1486.0029,50.5581Zm268.4381-5.0847a94.0552,94.0552,0,0,0,11.2395-22.3064,79.1278,79.1278,0,0,0,9.936,13.572A62.7992,62.7992,0,0,0,1754.441,45.4734Z"/><path class="cls-2" d="M1255.5077,257.9593c3.9724-1.4805,8.352-.4165,11.79,2.8646s5.8818,8.73,6.58,14.6686C1266.3209,276.1,1258.378,268.257,1255.5077,257.9593Z"/><path class="cls-2" d="M1254.8312,232.5761c3.9727-1.4805,8.3523-.4165,11.79,2.8646s5.8818,8.73,6.58,14.6683C1265.6445,250.717,1257.7015,242.8735,1254.8312,232.5761Z"/><path class="cls-2" d="M1255.8866,208.84c3.9724-1.4806,8.352-.4165,11.79,2.8645s5.8818,8.73,6.58,14.6683C1266.7,226.9808,1258.7568,219.1372,1255.8866,208.84Z"/><path class="cls-2" d="M1259.8819,184.9784c3.9725-1.4805,8.352-.4165,11.7895,2.8646s5.882,8.73,6.58,14.6683C1270.6951,203.1193,1262.7522,195.2758,1259.8819,184.9784Z"/><path class="cls-2" d="M1264.4764,162.0368c3.9725-1.4805,8.352-.4165,11.79,2.8646s5.8818,8.73,6.58,14.6683C1275.29,180.1774,1267.3467,172.3342,1264.4764,162.0368Z"/><path class="cls-2" d="M1268.9136,140.1108c3.9727-1.4805,8.3522-.4162,11.79,2.8645s5.8818,8.73,6.58,14.6687C1279.7268,158.2517,1271.7839,150.4085,1268.9136,140.1108Z"/><path class="cls-2" d="M1272.0032,116.8628c3.9724-1.48,8.352-.4165,11.79,2.8646s5.8818,8.73,6.58,14.6682C1282.8164,135.0037,1274.8734,127.16,1272.0032,116.8628Z"/><path class="cls-2" d="M1273.1136,95.95c3.9727-1.48,8.3523-.4165,11.79,2.8646s5.8818,8.73,6.58,14.6683C1283.9268,114.0911,1275.9839,106.2476,1273.1136,95.95Z"/><path class="cls-2" d="M1272.171,72.2323c3.9724-1.48,8.352-.4165,11.79,2.8646s5.8818,8.73,6.58,14.6686C1282.9842,90.3732,1275.0413,82.53,1272.171,72.2323Z"/><path class="cls-2" d="M1269.5386,48.985c3.9726-1.48,8.3522-.4165,11.79,2.8646s5.8818,8.73,6.58,14.6683C1280.3518,67.1259,1272.4088,59.2824,1269.5386,48.985Z"/><path class="cls-2" d="M1265.2036,23.4447c3.9725-1.4806,8.3521-.4162,11.7895,2.8645s5.8821,8.73,6.58,14.6687C1276.0168,41.5856,1268.0737,33.7424,1265.2036,23.4447Z"/><path class="cls-2" d="M1259.5694-1.3075c3.9725-1.4806,8.3523-.4165,11.79,2.8645s5.8819,8.73,6.58,14.6683C1270.3826,16.8334,1262.44,8.99,1259.5694-1.3075Z"/><path class="cls-2" d="M1258.074,272.7528c-4.0863-.4549-8.2763,1.7-11.28,5.8005s-4.7745,10.0861-4.7687,16.1126C1249.541,293.3558,1256.45,283.6224,1258.074,272.7528Z"/><path class="cls-2" d="M1254.5051,249.2986c-4.0864-.4549-8.2767,1.7-11.28,5.8005s-4.7745,10.086-4.7684,16.1126C1245.9718,269.9015,1252.88,260.1681,1254.5051,249.2986Z"/><path class="cls-2" d="M1254.61,223.9046c-3.9849-1.4059-8.355-.26-11.7639,3.0852s-5.8059,8.839-6.4526,14.79C1243.9541,242.2464,1251.8287,234.255,1254.61,223.9046Z"/><path class="cls-2" d="M1257.1424,201.2467a10.8485,10.8485,0,0,0-11.92-1.238c-3.8614,2.0179-7.0991,6.4839-8.7155,12.0218C1243.7612,215.2011,1252.725,210.2831,1257.1424,201.2467Z"/><path class="cls-2" d="M1262.6563,173.5044c-3.938-1.6682-8.3386-.8122-11.8463,2.3038s-6.07,8.4466-6.8983,14.349C1251.4509,191.123,1259.5619,183.66,1262.6563,173.5044Z"/><path class="cls-2" d="M1266.4224,152.8089a11.0074,11.0074,0,0,0-11.861-2.136c-3.9268,1.7238-7.3159,5.9394-9.1236,11.3478C1252.5718,165.7347,1261.6957,161.5,1266.4224,152.8089Z"/><path class="cls-2" d="M1270.7912,128.1359c-3.4862-3.1677-7.8809-4.0882-11.83-2.4778s-7.3941,5.727-9.2734,11.0823C1256.7709,140.66,1265.95,136.6891,1270.7912,128.1359Z"/><path class="cls-2" d="M1272.8284,104.889a10.8658,10.8658,0,0,0-11.9131-1.3661c-3.8715,1.9767-7.1313,6.4075-8.7753,11.9279C1259.3784,118.6992,1268.3666,113.8781,1272.8284,104.889Z"/><path class="cls-2" d="M1272.3342,82.7029a10.9,10.9,0,0,0-11.9007-1.5853c-3.888,1.905-7.1852,6.2755-8.876,11.7654C1258.7673,96.2645,1267.7961,91.6091,1272.3342,82.7029Z"/><path class="cls-2" d="M1270.9574,58.863a10.9323,10.9323,0,0,0-11.8888-1.7686c-3.9012,1.845-7.2294,6.1646-8.9592,11.6283C1257.2949,72.2147,1266.356,67.6985,1270.9574,58.863Z"/><path class="cls-2" d="M1267.0388,33.4464c-3.938-1.6681-8.3386-.8122-11.8463,2.3039s-6.07,8.4466-6.8981,14.349C1255.8336,51.065,1263.9444,43.6024,1267.0388,33.4464Z"/><path class="cls-2" d="M1261.2356,9.7163c-3.9381-1.6682-8.3386-.8122-11.8463,2.3042s-6.07,8.4462-6.8984,14.3486C1250.03,27.3349,1258.1409,19.8723,1261.2356,9.7163Z"/><path class="cls-2" d="M1261.0792,282.93c3.9456.6561,7.661,3.8845,9.955,8.65a29.3989,29.3989,0,0,1,2.2394,16.6826,14.7837,14.7837,0,0,1-9.965-8.2041C1261.128,295.4218,1260.2893,288.4468,1261.0792,282.93Z"/><path class="cls-2" d="M1266.4692,295.3457a.9208.9208,0,0,1-.7652-.5223c-16.18-28.0214-13.271-68.7739-10.097-90.5719,1.82-12.4993,4.3837-24.94,6.8637-36.9724,3.6-17.47,7.305-35.4521,8.7652-53.7092,4.0423-50.5656-9.2973-102.249-20.0168-143.7778a2.1051,2.1051,0,0,1,.0227-1.1268,1.2859,1.2859,0,0,1,.5574-.7724.7047.7047,0,0,1,.3562-.1c.4135,0,.79.3828.936.9528,10.8,41.8359,24.2359,93.8881,20.1352,145.17-1.4813,18.5284-5.2169,36.65-8.829,54.1756-2.4695,11.982-5.0236,24.3716-6.83,36.7776-3.0967,21.2688-5.9572,60.9907,9.6664,88.0478a1.9926,1.9926,0,0,1-.1157,2.08A.8336.8336,0,0,1,1266.4692,295.3457Z"/><path class="cls-1" d="M736.3178,239.3241c3.9724-1.4806,8.352-.4165,11.79,2.8645s5.8818,8.73,6.58,14.6687C747.131,257.465,739.1881,249.6218,736.3178,239.3241Z"/><path class="cls-1" d="M735.6413,213.9409c3.9727-1.4806,8.3523-.4165,11.79,2.8645s5.8818,8.73,6.58,14.6683C746.4546,232.0818,738.5116,224.2382,735.6413,213.9409Z"/><path class="cls-1" d="M736.6967,190.2046c3.9724-1.4805,8.352-.4165,11.79,2.8646s5.8818,8.73,6.58,14.6683C747.51,208.3455,739.5669,200.502,736.6967,190.2046Z"/><path class="cls-1" d="M740.692,166.3432c3.9725-1.4806,8.352-.4165,11.7895,2.8645s5.882,8.73,6.58,14.6683C751.5052,184.4841,743.5623,176.6405,740.692,166.3432Z"/><path class="cls-1" d="M745.2865,143.4016c3.9725-1.4806,8.352-.4165,11.79,2.8645s5.8818,8.73,6.58,14.6683C756.1,161.5421,748.1568,153.6989,745.2865,143.4016Z"/><path class="cls-1" d="M749.7237,121.4755c3.9726-1.48,8.3522-.4161,11.79,2.8646s5.8818,8.73,6.58,14.6686C760.5369,139.6165,752.594,131.7733,749.7237,121.4755Z"/><path class="cls-1" d="M752.8133,98.2275c3.9724-1.4805,8.352-.4165,11.79,2.8646s5.8818,8.73,6.58,14.6683C763.6265,116.3685,755.6835,108.5249,752.8133,98.2275Z"/><path class="cls-1" d="M753.9237,77.315c3.9727-1.4806,8.3523-.4165,11.79,2.8645s5.8818,8.73,6.58,14.6683C764.7369,95.4559,756.794,87.6123,753.9237,77.315Z"/><path class="cls-1" d="M752.9811,53.597c3.9724-1.48,8.352-.4165,11.79,2.8646s5.8818,8.73,6.58,14.6686C763.7943,71.738,755.8514,63.8948,752.9811,53.597Z"/><path class="cls-1" d="M750.3487,30.35c3.9726-1.4806,8.3522-.4165,11.79,2.8645s5.8818,8.73,6.58,14.6683C761.1619,48.4907,753.2189,40.6471,750.3487,30.35Z"/><path class="cls-1" d="M746.0137,4.8094c3.9725-1.4805,8.3521-.4161,11.7895,2.8646s5.8821,8.73,6.58,14.6686C756.8269,22.95,748.8838,15.1071,746.0137,4.8094Z"/><path class="cls-1" d="M738.8841,254.1176c-4.0863-.4549-8.2763,1.7-11.28,5.8s-4.7745,10.086-4.7687,16.1126C730.3511,274.7205,737.26,264.9871,738.8841,254.1176Z"/><path class="cls-1" d="M735.3152,230.6633c-4.0864-.4549-8.2767,1.7-11.28,5.8005s-4.7745,10.0861-4.7684,16.1126C726.7819,251.2663,733.6905,241.5329,735.3152,230.6633Z"/><path class="cls-1" d="M735.42,205.2693c-3.9849-1.4059-8.355-.26-11.7639,3.0852s-5.8059,8.8391-6.4526,14.79C724.7642,223.6111,732.6388,215.62,735.42,205.2693Z"/><path class="cls-1" d="M737.9525,182.6115a10.8484,10.8484,0,0,0-11.92-1.2381c-3.8614,2.018-7.0991,6.484-8.7155,12.0219C724.5713,196.5658,733.5351,191.6478,737.9525,182.6115Z"/><path class="cls-1" d="M743.4664,154.8691c-3.938-1.6681-8.3386-.8122-11.8463,2.3039s-6.07,8.4466-6.8983,14.349C732.261,172.4877,740.372,165.0252,743.4664,154.8691Z"/><path class="cls-1" d="M747.2325,134.1736a11.0073,11.0073,0,0,0-11.861-2.1359c-3.9268,1.7237-7.3159,5.9393-9.1236,11.3477C733.3819,147.1,742.5058,142.8649,747.2325,134.1736Z"/><path class="cls-1" d="M751.6013,109.5007c-3.4862-3.1677-7.8809-4.0882-11.83-2.4778s-7.3941,5.7269-9.2734,11.0822C737.581,122.0244,746.76,118.0538,751.6013,109.5007Z"/><path class="cls-1" d="M753.6385,86.2538a10.8658,10.8658,0,0,0-11.9131-1.3661c-3.8715,1.9767-7.1313,6.4075-8.7753,11.9278C740.1885,100.064,749.1767,95.2428,753.6385,86.2538Z"/><path class="cls-1" d="M753.1443,64.0677a10.9,10.9,0,0,0-11.9007-1.5853c-3.888,1.9049-7.1852,6.2755-8.876,11.7653C739.5774,77.6292,748.6062,72.9738,753.1443,64.0677Z"/><path class="cls-1" d="M751.7675,40.2278a10.9321,10.9321,0,0,0-11.8888-1.7686c-3.9012,1.845-7.2294,6.1646-8.9592,11.6283C738.105,53.58,747.1661,49.0632,751.7675,40.2278Z"/><path class="cls-1" d="M747.8489,14.8112c-3.938-1.6682-8.3386-.8122-11.8463,2.3038s-6.07,8.4466-6.8981,14.349C736.6437,32.43,744.7545,24.9672,747.8489,14.8112Z"/><path class="cls-1" d="M742.0457-8.919c-3.9381-1.6681-8.3386-.8122-11.8463,2.3042s-6.07,8.4463-6.8984,14.3487C730.84,8.7,738.951,1.237,742.0457-8.919Z"/><path class="cls-1" d="M741.8893,264.2948c3.9456.6561,7.6609,3.8844,9.955,8.65a29.3991,29.3991,0,0,1,2.2394,16.6827,14.7837,14.7837,0,0,1-9.965-8.2041C741.9381,276.7865,741.0994,269.8115,741.8893,264.2948Z"/><path class="cls-1" d="M747.2793,276.7105a.921.921,0,0,1-.7652-.5223c-16.18-28.0215-13.271-68.774-10.097-90.5719,1.82-12.4993,4.3837-24.94,6.8637-36.9724,3.6-17.4705,7.305-35.4521,8.7652-53.7093,4.0423-50.5655-9.2973-102.2489-20.0168-143.7777a2.105,2.105,0,0,1,.0227-1.1268,1.2856,1.2856,0,0,1,.5574-.7724.7047.7047,0,0,1,.3562-.1c.4135,0,.79.3827.936.9528,10.7995,41.8359,24.2359,93.8881,20.1352,145.17-1.4813,18.5283-5.2169,36.65-8.829,54.1756-2.47,11.982-5.0236,24.3715-6.83,36.7776-3.0967,21.2688-5.9572,60.9906,9.6664,88.0477a1.9928,1.9928,0,0,1-.1157,2.08A.8336.8336,0,0,1,747.2793,276.7105Z"/><path class="cls-1" d="M1475.5635,238.8307a17.8114,17.8114,0,0,1,16.5657,3.4029c4.83,3.8976,8.2645,10.3706,9.2455,17.4252C1490.7571,260.3807,1479.5965,251.0636,1475.5635,238.8307Z"/><path class="cls-1" d="M1474.613,208.6772a17.8116,17.8116,0,0,1,16.5657,3.4029c4.83,3.8977,8.2645,10.3707,9.2455,17.4249C1489.8066,230.2273,1478.646,220.91,1474.613,208.6772Z"/><path class="cls-1" d="M1476.0958,180.48a17.8119,17.8119,0,0,1,16.5657,3.4029c4.83,3.8977,8.2646,10.3706,9.2455,17.4249C1491.2894,202.03,1480.1288,192.7128,1476.0958,180.48Z"/><path class="cls-1" d="M1481.71,152.1347a17.8107,17.8107,0,0,1,16.5654,3.4029c4.83,3.8976,8.2648,10.3706,9.2459,17.4248C1496.9033,173.6848,1485.7427,164.3672,1481.71,152.1347Z"/><path class="cls-1" d="M1488.1654,124.8817a17.8119,17.8119,0,0,1,16.5657,3.4029c4.83,3.8973,8.2645,10.3706,9.2456,17.4249C1503.359,146.4314,1492.1984,137.1142,1488.1654,124.8817Z"/><path class="cls-1" d="M1494.4,98.8352a17.8128,17.8128,0,0,1,16.5658,3.4029c4.83,3.8977,8.2645,10.3706,9.2455,17.4253C1509.5937,120.3853,1498.4331,111.0682,1494.4,98.8352Z"/><path class="cls-1" d="M1498.7412,71.2183a17.8116,17.8116,0,0,1,16.5657,3.4029c4.83,3.8977,8.2646,10.3706,9.2456,17.4249C1513.9348,92.7684,1502.7743,83.4508,1498.7412,71.2183Z"/><path class="cls-1" d="M1500.3015,46.3757a17.8112,17.8112,0,0,1,16.5657,3.4029c4.83,3.8977,8.2646,10.3706,9.2456,17.4249C1515.4951,67.9258,1504.3345,58.6082,1500.3015,46.3757Z"/><path class="cls-1" d="M1498.977,18.2005a17.8121,17.8121,0,0,1,16.5658,3.4029c4.83,3.8977,8.2645,10.3706,9.2455,17.4253C1514.1707,39.7506,1503.01,30.4335,1498.977,18.2005Z"/><path class="cls-1" d="M1495.2782-9.4155a17.811,17.811,0,0,1,16.5657,3.4029c4.83,3.8976,8.2646,10.3706,9.2456,17.4248C1510.4718,12.1346,1499.3112,2.817,1495.2782-9.4155Z"/><path class="cls-1" d="M1479.1694,256.4042c-5.7417-.54-11.6291,2.02-15.849,6.8906a29.7523,29.7523,0,0,0-6.7005,19.1406C1467.18,280.8791,1476.8869,269.3165,1479.1694,256.4042Z"/><path class="cls-1" d="M1474.1547,228.5423c-5.7418-.54-11.63,2.0191-15.8494,6.8906a29.7493,29.7493,0,0,0-6.7,19.1406C1462.1646,253.0171,1471.8718,241.4545,1474.1547,228.5423Z"/><path class="cls-1" d="M1474.3014,198.3761a17.8669,17.8669,0,0,0-16.5294,3.665c-4.79,3.9735-8.1579,10.5-9.0666,17.57C1459.33,220.1648,1470.3942,210.6717,1474.3014,198.3761Z"/><path class="cls-1" d="M1477.86,171.46a17.5314,17.5314,0,0,0-16.7488-1.4707c-5.4257,2.3972-9.9749,7.7025-12.2461,14.2811C1459.0584,188.037,1471.6535,182.1948,1477.86,171.46Z"/><path class="cls-1" d="M1485.608,138.5044a17.6893,17.6893,0,0,0-16.6452,2.7368c-4.9287,3.702-8.53,10.0339-9.6929,17.0455C1469.8632,159.434,1481.26,150.569,1485.608,138.5044Z"/><path class="cls-1" d="M1490.9,113.92a17.6568,17.6568,0,0,0-16.6658-2.5374c-5.5176,2.0477-10.28,7.0556-12.82,13.48C1471.4382,129.2746,1484.2582,124.2442,1490.9,113.92Z"/><path class="cls-1" d="M1497.0383,84.61a17.723,17.723,0,0,0-16.6222-2.9435c-5.5488,1.9126-10.3894,6.8032-13.03,13.1649C1477.3383,99.4872,1490.2354,94.7705,1497.0383,84.61Z"/><path class="cls-1" d="M1499.9008,56.9944a17.5449,17.5449,0,0,0-16.7392-1.6229c-5.44,2.3482-10.02,7.6117-12.33,14.1694C1481.0022,73.4,1493.6315,67.6727,1499.9008,56.9944Z"/><path class="cls-1" d="M1499.2064,30.6389a17.5724,17.5724,0,0,0-16.7217-1.8832c-5.4631,2.2629-10.096,7.4548-12.4717,13.9763C1480.1436,46.749,1492.83,41.2187,1499.2064,30.6389Z"/><path class="cls-1" d="M1497.2718,2.3188a17.5978,17.5978,0,0,0-16.7049-2.101c-5.4816,2.1918-10.158,7.3232-12.5886,13.8136C1478.0746,18.18,1490.8064,12.8147,1497.2718,2.3188Z"/><path class="cls-1" d="M1483.392,268.494c5.544.7794,10.7644,4.6145,13.9877,10.276a30.085,30.085,0,0,1,3.1467,19.8177,20.421,20.421,0,0,1-14.0018-9.7458C1483.4605,283.3333,1482.2821,275.0475,1483.392,268.494Z"/><path class="cls-1" d="M1490.9655,283.243a1.3207,1.3207,0,0,1-1.0753-.62c-22.7349-33.2874-18.647-81.6984-14.1872-107.5928,2.5574-14.8482,6.1595-29.6271,9.6442-43.9205,5.0582-20.7536,10.2642-42.1145,12.316-63.8026,5.68-60.0682-13.0636-121.4643-28.1256-170.7975a2.1294,2.1294,0,0,1,.0319-1.3385,1.5747,1.5747,0,0,1,.7832-.9176,1.13,1.13,0,0,1,.5-.1184,1.4609,1.4609,0,0,1,1.3152,1.1318c15.1745,49.698,34.0539,111.5322,28.2919,172.451-2.0813,22.01-7.33,43.537-12.4055,64.3566-3.47,14.2338-7.0587,28.9517-9.5972,43.6892-4.3512,25.2657-8.37,72.4524,13.5822,104.5942a2.0639,2.0639,0,0,1-.1624,2.4705A1.2456,1.2456,0,0,1,1490.9655,283.243Z"/><path class="cls-2" d="M1808.7593,178.338a14.2092,14.2092,0,0,1,13.2154,2.7147,21.9073,21.9073,0,0,1,7.3756,13.9011C1820.88,195.53,1811.9766,188.0969,1808.7593,178.338Z"/><path class="cls-2" d="M1808.001,154.2829a14.2091,14.2091,0,0,1,13.2154,2.7147,21.9074,21.9074,0,0,1,7.3757,13.9008C1820.1218,171.4746,1811.2184,164.0415,1808.001,154.2829Z"/><path class="cls-2" d="M1809.184,131.7887a14.2093,14.2093,0,0,1,13.2153,2.7146,21.9072,21.9072,0,0,1,7.3757,13.9008C1821.3047,148.98,1812.4013,141.5472,1809.184,131.7887Z"/><path class="cls-2" d="M1813.6624,109.1758a14.2086,14.2086,0,0,1,13.2152,2.7146,21.9071,21.9071,0,0,1,7.376,13.9008C1825.7832,126.3675,1816.88,118.9343,1813.6624,109.1758Z"/><path class="cls-2" d="M1818.8125,87.4345a14.2094,14.2094,0,0,1,13.2154,2.7147,21.9062,21.9062,0,0,1,7.3757,13.9008C1830.9333,104.6259,1822.03,97.1931,1818.8125,87.4345Z"/><path class="cls-2" d="M1823.7863,66.6558a14.21,14.21,0,0,1,13.2154,2.7146,21.9076,21.9076,0,0,1,7.3756,13.9012C1835.9071,83.8475,1827.0036,76.4147,1823.7863,66.6558Z"/><path class="cls-2" d="M1827.25,44.6242a14.2092,14.2092,0,0,1,13.2154,2.7147,21.9073,21.9073,0,0,1,7.3756,13.9008C1839.37,61.8159,1830.4668,54.3828,1827.25,44.6242Z"/><path class="cls-2" d="M1828.4942,24.8059a14.2089,14.2089,0,0,1,13.2154,2.7147,21.9072,21.9072,0,0,1,7.3757,13.9007C1840.615,41.9976,1831.7116,34.5644,1828.4942,24.8059Z"/><path class="cls-2" d="M1827.4376,2.329a14.2091,14.2091,0,0,1,13.2154,2.7146,21.9077,21.9077,0,0,1,7.3757,13.9012C1839.5584,19.5207,1830.655,12.0879,1827.4376,2.329Z"/><path class="cls-2" d="M1811.6359,192.3574a15.08,15.08,0,0,0-12.6436,5.497,23.7351,23.7351,0,0,0-5.3453,15.2695C1802.071,211.8824,1809.815,202.6582,1811.6359,192.3574Z"/><path class="cls-2" d="M1807.6354,170.13a15.0791,15.0791,0,0,0-12.6439,5.497,23.7328,23.7328,0,0,0-5.3451,15.2695C1798.07,189.6553,1805.8142,180.4312,1807.6354,170.13Z"/><path class="cls-2" d="M1807.7524,146.0651a14.2534,14.2534,0,0,0-13.1864,2.9238,22.0508,22.0508,0,0,0-7.2329,14.0163C1795.8085,163.4472,1804.6354,155.874,1807.7524,146.0651Z"/><path class="cls-2" d="M1810.5916,124.5928A13.9855,13.9855,0,0,0,1797.23,123.42c-4.3284,1.9123-7.9576,6.1446-9.7694,11.3928C1795.5923,137.817,1805.64,133.1564,1810.5916,124.5928Z"/><path class="cls-2" d="M1816.7723,98.3021a14.1119,14.1119,0,0,0-13.2788,2.1833,21.5323,21.5323,0,0,0-7.7325,13.5982C1804.2118,114.9988,1813.3037,107.9267,1816.7723,98.3021Z"/><path class="cls-2" d="M1820.9938,78.6894a14.0856,14.0856,0,0,0-13.2952-2.0242c-4.4017,1.6336-8.2007,5.6286-10.2269,10.754C1805.4683,90.939,1815.6955,86.9259,1820.9938,78.6894Z"/><path class="cls-2" d="M1825.891,55.3075a14.1388,14.1388,0,0,0-13.2606-2.3482c-4.4265,1.5258-8.2881,5.4273-10.3947,10.5024C1810.1752,67.1759,1820.4639,63.4131,1825.891,55.3075Z"/><path class="cls-2" d="M1828.1745,33.277a13.9964,13.9964,0,0,0-13.3537-1.2947c-4.34,1.8733-7.9937,6.0723-9.8365,11.3038C1813.098,46.3645,1823.1732,41.7956,1828.1745,33.277Z"/><path class="cls-2" d="M1827.6205,12.2517a14.0185,14.0185,0,0,0-13.34-1.5023c-4.3582,1.8052-8.0541,5.9471-9.9494,11.15C1812.4131,25.1037,1822.5336,20.6919,1827.6205,12.2517Z"/><path class="cls-2" d="M1826.0772-10.3408a14.0386,14.0386,0,0,0-13.3264-1.676c-4.373,1.7484-8.1036,5.842-10.0426,11.02C1810.7625,2.3123,1820.9194-1.9676,1826.0772-10.3408Z"/><path class="cls-2" d="M1815.0045,202.0021c4.4228.6218,8.5874,3.6812,11.1588,8.1977a24.0008,24.0008,0,0,1,2.51,15.81,16.2915,16.2915,0,0,1-11.17-7.7749C1815.0592,213.84,1814.1191,207.23,1815.0045,202.0021Z"/><path class="cls-2" d="M1821.0463,213.7682a1.0537,1.0537,0,0,1-.8578-.495c-18.1369-26.5552-14.8758-65.1754-11.3179-85.8328,2.04-11.8453,4.9138-23.6352,7.6937-35.0379,4.0352-16.5563,8.1883-33.597,9.8252-50.8989,4.531-47.92-10.4216-96.8989-22.4374-136.2547a1.7,1.7,0,0,1,.0254-1.0679,1.2563,1.2563,0,0,1,.6248-.7319.9011.9011,0,0,1,.3993-.0945,1.1656,1.1656,0,0,1,1.0492.9029c12.1055,39.6469,27.1666,88.9755,22.57,137.5738-1.66,17.5589-5.8477,34.7319-9.8966,51.3409-2.7681,11.3551-5.6311,23.0964-7.6562,34.8533-3.4712,20.1559-6.6776,57.7994,10.8353,83.4407a1.6465,1.6465,0,0,1-.13,1.9709A.9938.9938,0,0,1,1821.0463,213.7682Z"/><path class="cls-2" d="M-1.5453-109.7361V81.6185A70.7054,70.7054,0,0,0,39.41,74.8524c.6888,14.0192,7.1879,27.3381,15.0552,38.8024C64.2415,99.11,68.6523,80.7928,67.4525,62.959a68.6058,68.6058,0,0,0,6.2,10.4277C82.8586,86.0885,97.7381,92.46,112.4406,95.8339a78.3728,78.3728,0,0,0-6.9173-25.2122,76.9678,76.9678,0,0,0,28.2411-31.3,72.3985,72.3985,0,0,0,.0479,12.3533c1.4584,15.9884,10.8743,29.847,21.6355,41.0676a79.8719,79.8719,0,0,0,7.0791-32.5313A74.372,74.372,0,0,0,183.9151,39.59c2.8187,13.664,11.219,25.6465,20.6812,35.5776,7.3419-15.7867,8.9851-34.2842,5.3421-51.452.1136-.0389.2286-.0746.3425-.1137a66.4155,66.4155,0,0,0,7.186,8.5236c10.6454,10.6,25.6407,14.4273,40.2094,15.39-1.0217,2.3456-1.9727,4.7219-2.8433,7.11a67.5645,67.5645,0,0,0,34.9586-7.7444c-3.4162,13.5073-1.1553,28.2815,2.935,41.7609,13.5543-10.5338,23.1217-26.4475,27.22-43.7832a71.6391,71.6391,0,0,0,2.8244,11.9786C327.7827,71.9832,340.04,83.02,353.0089,91.1507a79.5912,79.5912,0,0,0,.7988-26.6036,68.102,68.102,0,0,0,27.4091-.0633c-6.5694,12.1046-7.9617,27.0009-7.2733,41.1519,15.6434-6.4318,28.7375-19.1625,36.8926-34.7766a72.432,72.432,0,0,0-.1711,12.3523c1.1553,15.7491,10.0451,29.5894,20.3829,40.921a98.18,98.18,0,0,0,5.6635,10.8521c-7.0221,5.1752-13.1514,12.0293-18.4286,19.26a67.0948,67.0948,0,0,0,35.57,3.285c-6.8971,11.8947-8.696,26.7414-8.3944,40.9074,14.84-5.5759,27.5567-16.7894,36.16-30.8364.4684.0612.9352.1392,1.4043.1878a71.9825,71.9825,0,0,0-.2456,9.3788c.7368,16.0445,9.5177,30.3712,19.7614,42.1318a76.8074,76.8074,0,0,0,6.8878-19.4937c.64,1.0894,1.289,2.17,1.9553,3.2311a79.044,79.044,0,0,0,14.0377-35.0673c8.4214,10.7161,21.0612,17.1812,33.7526,21.3024a80.8333,80.8333,0,0,0-16.6347-47.01c.2658-.2781.5382-.55.8-.8317a60.6177,60.6177,0,0,0,8.5832,3.3259c12.654,3.7241,26.0589.8192,38.3466-4.4471-.2567,3.7076-.3289,7.4319-.2505,11.1111,15.8122-5.9415,29.2484-18.258,37.8266-33.6113a72.3706,72.3706,0,0,0-.5081,12.3412c.7365,16.0448,9.5176,30.3715,19.7611,42.132A80.0687,80.0687,0,0,0,655.75,137.428a66.1169,66.1169,0,0,0,12.3255-15.3055,90.0828,90.0828,0,0,0-1.5043,17.0859,59.3969,59.3969,0,0,0,24.8618-17.2645c4.1451,9.5886,11.64,17.5051,19.6832,23.92a67.8377,67.8377,0,0,0,1.987-31.5856,146.3769,146.3769,0,0,0,32.0467-9.34,81.0792,81.0792,0,0,0-1.8454,23.3076A58.53,58.53,0,0,0,763.16,114.4285c.3914,10.6489,3.55,21.3531,7.6947,31.1878,10.2806-9.9967,17.4241-23.3611,20.8866-37.7314,7.0715,11.8771,18.9059,20.06,31.0766,25.8963A79.5134,79.5134,0,0,0,820.9,107.2136a74.58,74.58,0,0,0,27.3755,14.6815,72.9884,72.9884,0,0,0,43.5928-1.5984,57.5812,57.5812,0,0,0,38.3375-2.9834A83.4261,83.4261,0,0,0,919.76,130.2094a55.9561,55.9561,0,0,0,29.6219,1.4571c-1.8656,10.372-.0969,21.4715,2.9364,31.693a60.7125,60.7125,0,0,0,14.423-16.0482,98.69,98.69,0,0,0-2.3639,10.9514,56.4852,56.4852,0,0,0,22.2005-8.853c-1.7947,10.4831-.9,21.6662,1.1343,32.23,14.5742-8.88,25.7332-23.5888,31.5933-40.3551a69.4109,69.4109,0,0,0,3.83,8.3022c7.6548,13.8269,21.6763,22.1276,35.8714,27.43a80.1548,80.1548,0,0,0-7.0533-33.9966,74.4645,74.4645,0,0,0,11.3451-8.4141c-.19,13.99,5.4134,27.7113,12.491,39.6959,10.5742-13.6166,16.1521-31.2973,16.2526-48.9641.0812-.0234.1623-.0473.2434-.0707a69.2671,69.2671,0,0,0,5.2728,10.2935c8.3551,13.3563,22.7824,20.8208,37.229,25.281a80.66,80.66,0,0,0-15.9436-45.0966c27.373-11.8357,52.3227-29.3693,71.0891-53.3382a135.6691,135.6691,0,0,0,19.1915,11.578c-.7988.4817-1.6111.9379-2.3853,1.4637-10.5972,7.2005-16.7034,19.9285-20.4623,32.73,14.0222-.1731,27.7617-6.0909,38.4066-15.8087a87.71,87.71,0,0,0-6.2515,15.8087,56.7569,56.7569,0,0,0,28.5749-8.4646c1.25,10.4771,6.1645,20.4371,12.0257,29.1422a64.1853,64.1853,0,0,0,9.0139-19.9827,99.644,99.644,0,0,0,.9608,11.1289,59.6008,59.6008,0,0,0,18.5179-15.7948c1.3492,10.559,5.4581,20.8888,10.4694,30.2515,11.2627-13.2848,17.5814-30.9735,18.2648-48.8556a65.645,65.645,0,0,0,6.0591,6.6164c11.3035,10.5947,27.0472,13.8206,42.0818,14.1392a77.036,77.036,0,0,0-16.609-29.9626,79.1833,79.1833,0,0,0,8.33-11.7684c3.896,13.3583,13.22,24.5348,23.4377,33.57,6.1546-16.6549,6.2431-35.5682,1.0018-52.549a65.4614,65.4614,0,0,0,8.3966,8.4942c11.8316,9.9146,27.7174,12.211,42.7459,11.6461a76.2627,76.2627,0,0,0-41.8385-45.0825c1.8894-3.2106,3.704-6.4935,5.3542-9.9281,22.7062,25.81,53.3486,40.8845,86.1347,47.59a104.7507,104.7507,0,0,0-9.5614,15.8562,67.0961,67.0961,0,0,0,35.5638-3.3577c-4.8605,12.9925-4.2206,27.9474-1.6226,41.8429,14.6075-8.7818,25.8393-23.4024,31.7939-40.1127a72.1572,72.1572,0,0,0,1.5039,12.2483c3.3315,15.6647,14.3064,28.1467,26.3047,37.83a82.5717,82.5717,0,0,0-.0487-49.005,61.7557,61.7557,0,0,0,20.3815-12.4022,87.7076,87.7076,0,0,0-6.2513,15.8087,56.76,56.76,0,0,0,28.5747-8.4645c1.25,10.4768,6.1647,20.437,12.0259,29.1421,9.6952-14.1517,13.2433-32.69,10.3083-49.898a134.2831,134.2831,0,0,0,18.8611-8.0375,104.1166,104.1166,0,0,0,15.4713,8.1636,81.2028,81.2028,0,0,0-8.349,19.5239,55.6245,55.6245,0,0,0,23.123-5.5376c-3.1157,10.1241-3.6561,21.3329-2.9891,32.0944,15.5711-6.6747,28.5029-19.6216,36.4479-35.378a70.6956,70.6956,0,0,0,2.7351,8.7826c5.8188,14.8125,18.65,25.0774,32.0363,32.3966a82.1233,82.1233,0,0,0-8.0022-48.2873,87.1711,87.1711,0,0,0,26.4213-14.2941q6.6668,7.4826,13.6074,14.7429a90.1473,90.1473,0,0,0-18.4038,15.4224,67.1127,67.1127,0,0,0,29.806,7.9942c-7.4245,8.7511-12.1815,20.2151-15.37,31.7051,16.25-.4735,32.0715-7.4111,44.4738-18.6033a213.8923,213.8923,0,0,0,31.6933,19.9018,96.4984,96.4984,0,0,0-9.9794,24.1606,68.1087,68.1087,0,0,0,34.2348-10.823c-2.3529,13.7641,1.05,28.2865,6.1753,41.356,10.8856-10.0395,18.5026-23.7756,22.1847-38.6126,1.2785.1419,2.5572.2587,3.8368.364.46,1.3043.908,2.614,1.4437,3.8854a52.786,52.786,0,0,0,13.5351,18.549V-109.7361ZM598.6491,79.7045c-14.048,3.171-25.4794,13.8319-34.5327,25.8164,5.5027-15.8333,8.7012-32.86,14.0606-49.7569A139.9444,139.9444,0,0,0,598.7293,79.69C598.7027,79.6963,598.6757,79.6984,598.6491,79.7045Zm-38.602,36.1735q1.843-4.155,3.4-8.4438a67.1616,67.1616,0,0,0,34.9642,3.0783,62.923,62.923,0,0,0-7.3962,22.6452A71.4951,71.4951,0,0,0,560.0471,115.878Z"/></svg>