<?xml version="1.0" encoding="utf-8"?>
<!-- Generator: Adobe Illustrator 25.4.1, SVG Export Plug-In . SVG Version: 6.00 Build 0)  -->
<svg version="1.1" id="Layer_1" xmlns="http://www.w3.org/2000/svg" xmlns:xlink="http://www.w3.org/1999/xlink" x="0px" y="0px"
	 viewBox="0 0 725.57 358.83" style="enable-background:new 0 0 725.57 358.83;" xml:space="preserve">
<style type="text/css">
	.st0{fill:#2B331F;}
	.st1{fill:#546747;}
	.st2{fill:#BB8918;}
	.st3{fill:#FFFFFF;}
</style>
<g>
	<path class="st0" d="M187.23,216.5c0.17,1.41,0.35,2.83,0.54,4.24c-2.05-0.52-4.09-1.02-6.15-1.5h-0.01
		c-3.5-0.82-7.01-1.59-10.53-2.3c-4.25-0.87-8.52-1.65-12.8-2.35c-10.19-1.68-20.48-2.9-30.84-3.7V87.73h-3.46l-1.67,3.91
		L71.49,210.78c-5.03,0.36-10.06,0.82-15.09,1.38c-2.72,0.3-5.43,0.63-8.15,0.99c-8.89,1.19-17.35,2.62-25.33,4.22
		c-5.04,1-9.89,2.08-14.53,3.19c-2.71,0.65-5.34,1.31-7.91,1.98l88.13-186.7L100.86,9.9l1.94-4.11h91.48
		c-2.89,14.53-5.27,29.12-7.15,43.79c-0.72,5.53-1.35,11.07-1.91,16.62c-1.46,14.17-2.43,28.4-2.94,42.68
		c-1,28.28-0.16,56.76,2.5,85.32C185.47,201.63,186.29,209.06,187.23,216.5z"/>
	<path class="st0" d="M123.17,358.54v-66.99H0.48v-44.08c14.54-4.1,31.88-8.01,51.32-10.58c2.63-0.35,5.34-0.67,8.1-0.97
		c4.61-0.5,9.4-0.93,14.35-1.27c12.13-0.82,25.23-1.08,39.11-0.48c17.84,0.77,36.96,2.98,56.93,7.25c7.04,1.5,14.19,3.26,21.42,5.31
		c4.62,27.08,10.86,54.16,18.71,81.14c3.07,10.55,6.31,20.77,9.65,30.67H123.17z"/>
</g>
<g>
	<g>
		<path class="st1" d="M274.29,195.39c-19.37,4.29-38.65,8.9-57.75,14.29c-7.17-67.41-4.96-134,7.24-200.71
			c11.72-0.05,23.44-0.09,35.15-0.13c-9.7,47.1-14.17,94.19-13.54,142.27c9.37-1.69,18.76-3.28,28.16-4.76
			C273.09,162.7,273.42,179.07,274.29,195.39z"/>
		<path class="st1" d="M347.82,182.45c-22.41,3.21-44.63,7.06-66.82,11.52c-5.89-62.45-2.48-123.91,10.68-185.25
			c22.49-0.07,44.98-0.14,67.48-0.19c-4.29,15.09-7.75,30.42-10.62,45.83c-9.97,0.37-19.94,0.79-29.91,1.26
			c-1.11,8.6-1.58,12.91-2.34,21.55c10.43-0.69,15.65-1.01,26.1-1.59c-1.22,13.47-1.89,26.99-2.02,40.51
			c-10.44,0.92-15.65,1.42-26.05,2.51c-0.08,9.77-0.01,14.66,0.36,24.46c10.69-1.31,21.37-2.54,32.08-3.68
			C346.68,153.78,347.03,168.07,347.82,182.45z"/>
		<path class="st1" d="M400.22,134.75c1.98-0.12,4.6-0.82,7.86-2.08c-0.21-6.49-0.27-9.73-0.26-16.21c-3.3,0.16-4.95,0.24-8.25,0.41
			c0.01-12.47,0.51-24.94,1.51-37.37c12.98-0.46,25.96-0.8,38.95-1.04c-2.14,32.05-1.38,63.64,2.14,95.58
			c-10,0.42-14.99,0.69-24.97,1.35c-1.41-3.4-2.11-5.11-3.46-8.51c-0.26,0.02-0.4,0.03-0.66,0.04c-4.93,7.98-11.21,12.3-18.96,13.05
			c-40.34,3.91-43.09-59.34-41.87-84.02c1.13-22.79,5.47-47.45,18.37-67.37c8.64-13.35,23.85-23.76,40.16-22.8
			c11.39,0.67,22.69,2.09,32.96,8.16c-5.32,16.53-9.92,33.1-13.85,50.01c-11.7-5.3-20.13-7.89-25.45-7.77
			c-5.33,0.13-9.35,3.15-11.6,8.96c-3.58,9.27-4.45,19.94-4.92,29.85c-0.48,10.08-0.58,20.79,1.9,30.59
			C391.44,131.98,395.05,135.06,400.22,134.75z"/>
		<path class="st1" d="M498.2,132.41c1.99,0.03,4.62-0.47,7.9-1.47c-0.23-6.4-0.29-9.6-0.31-15.99c-3.32-0.05-4.97-0.08-8.29-0.11
			c-0.02-12.24,0.43-24.49,1.38-36.7c13.02,0.09,26.04,0.3,39.05,0.61c-1.97,32.19-1.09,63.92,2.5,95.97
			c-10.04-0.56-15.06-0.77-25.1-1.08c-1.42-3.47-2.12-5.2-3.49-8.66c-0.27-0.01-0.4-0.01-0.66-0.02
			c-4.96,7.36-11.26,10.94-19.1,10.9c-39.56-0.19-43.56-57.29-42.21-83.94c1.11-21.82,5.5-45.38,18.23-64.24
			c8.78-13.01,24.03-22.82,40.05-21.9c11.41,0.66,22.75,2.06,33.03,8.16c-5.18,16.48-9.66,33-13.51,49.84
			c-11.75-5.7-20.21-8.48-25.55-8.51c-5.34-0.03-9.33,2.82-11.58,8.45c-3.63,9.05-4.39,19.68-4.82,29.02
			c-0.45,9.59-0.56,20.29,1.99,29.99C489.4,129.1,493,132.34,498.2,132.41z"/>
		<path class="st1" d="M619.67,182.21c-21.72-2.78-43.43-4.99-65.26-6.63c-6.28-56.5-3.82-111.52,7.94-167.15
			c22.48,0.03,44.97,0.06,67.45,0.11c-4.03,15.08-7.3,30.38-10.01,45.76c-9.98-0.37-19.97-0.7-29.95-0.99
			c-1.03,8.2-1.46,12.31-2.15,20.55c10.47,0.43,15.7,0.67,26.17,1.21c-1.11,13.38-1.69,26.81-1.75,40.23
			c-10.46-0.85-15.69-1.23-26.15-1.91c-0.04,9.32,0.04,13.99,0.43,23.34c10.75,0.9,21.48,1.87,32.22,2.94
			C618.53,153.89,618.89,168.01,619.67,182.21z"/>
		<path class="st1" d="M715.49,100.05c-1.32,27.23,0.25,99.27-45.67,90.14c-13.12-2.41-26.29-4.58-39.5-6.49
			c-6.21-59-3.76-116.94,7.86-175.14c13.49,0.03,26.98,0.07,40.47,0.11c14.92,0.09,28.94,8.21,32.93,23.16
			C717.29,53.2,716.56,77.85,715.49,100.05z M676.58,135.42c2.38-11.04,2.43-22.86,2.9-34.18c0.47-11.42,1.41-23.35-0.27-34.62
			c-1.02-6.83-4.45-10.47-10.15-10.75c-1.38-0.07-2.07-0.1-3.45-0.17c-3.19,29.35-4.39,58.48-3.69,87.99
			c1.64,0.22,2.46,0.33,4.1,0.56C671.58,145.02,675.15,142.04,676.58,135.42z"/>
	</g>
</g>
<g>
	<g>
		<path class="st2" d="M327.81,317.52c5.71,22.85-3.68,39.63-28.68,39.07c-16.5,0.06-33,0.13-49.51,0.19
			c-12.2-37.34-21.66-75.07-28.39-113.77c14.98-4.35,30.06-8.38,45.24-11.95c10.08-2.56,21.9-3.26,31.01,2.06
			c8.61,5.02,12.91,15.37,14.75,24.81c1.96,10.06,0.52,21.29-6.83,29.1c0.08,0.34,0.12,0.51,0.2,0.85
			C317.71,292.89,324.82,305.53,327.81,317.52z M275.26,281.49c0.59-1.76,0.42-4.64-0.49-8.64c-0.91-3.99-2.03-6.79-3.39-8.37
			c-1.36-1.58-3.13-2.17-5.3-1.77c-1.98,0.37-2.97,0.55-4.94,0.92c1.88,8.67,2.88,13,4.99,21.67c2.05-0.3,3.08-0.44,5.14-0.74
			C273.34,284.27,274.67,283.25,275.26,281.49z M289.74,329.68c0.58-1.61,0.12-4.96-1.32-9.97c-1.43-5.01-2.96-8.53-4.64-10.52
			c-1.67-1.99-4.01-2.83-7.01-2.54c-2.01,0.2-3.01,0.3-5,0.5c2.77,10.16,4.25,15.28,7.35,25.43c2.01-0.1,3.02-0.15,5.04-0.26
			C287.3,332.17,289.16,331.29,289.74,329.68z"/>
		<path class="st2" d="M371,306.84c2.37,8.19,6.29,12.19,11.64,12.02c5.35-0.17,6.65-4.47,4.04-12.91
			c-9.25-30.48-17.36-61.19-24.33-92.27c10.49-1.35,21-2.43,31.52-3.47c8.5,32.9,18.22,65.36,29.14,97.54
			c3.58,12.32,8.72,26.88,2.07,38.56c-5.62,9.87-19.29,12.36-30.02,12.24c-29.14-0.35-52.08-17.83-58.48-46.88
			c-7.15-30.26-13.08-60.64-17.79-91.38c9.94-1.77,19.94-3.36,29.94-4.77C355.01,246.26,362.43,276.65,371,306.84z"/>
		<path class="st2" d="M518.84,278.22c9.34,26.41,24.34,78.71-21.42,77.99c-14.05,0.01-28.1,0.02-42.16,0.04
			c-19.15-48.13-35.39-97.1-48.79-147.14c13.15-1.05,26.32-1.83,39.5-2.33c16.36-1.08,32.73,5.99,43.73,17.86
			C503.58,239.62,512.24,259.55,518.84,278.22z M490.11,310.56c-0.84-9.49-4.67-19.2-7.74-28.21c-3.25-9.55-6.88-19.6-12.38-28.04
			c-3.59-5.51-8.44-8.23-14.25-8.06c-1.41,0.04-2.11,0.06-3.51,0.11c7.86,24.51,16.32,48.74,25.41,72.81
			c1.72-0.02,2.58-0.03,4.31-0.05C487.81,319.06,490.61,316.12,490.11,310.56z"/>
		<path class="st2" d="M627.55,282.38c8.49,26.38,18.98,75.76-25.2,73.86c-14.08-0.02-28.16-0.03-42.24-0.03
			c-20.7-48.95-38.41-98.83-53.27-149.86c15.07,0.45,30.09,1.16,45.14,2.12c17.82,0.84,35.7,8.76,47.83,21.77
			C613.38,244.81,621.67,264.08,627.55,282.38z M595.73,311.47c-0.59-9.23-4.26-18.76-7.15-27.53c-3.11-9.45-6.65-19.39-12.12-27.7
			c-3.67-5.56-8.86-8.59-15.24-8.91c-1.55-0.08-2.32-0.12-3.86-0.19c7.79,24.35,16.19,48.41,25.24,72.31
			c1.78,0.03,2.67,0.05,4.46,0.08C593.12,319.64,596.07,316.86,595.73,311.47z"/>
		<path class="st2" d="M722.71,235.4c-7.79,26.33-11.18,53.29-12.72,80.62c4.25,13.6,8.73,27.09,13.48,40.53
			c-12.47-0.05-24.94-0.09-37.41-0.13c-5.45-14.36-10.63-28.78-15.57-43.31c-20.32-32.31-39.64-65.14-58.11-98.54
			c15.15,2.09,30.24,4.43,45.31,7.03c6.65,17.06,13.57,33.99,20.76,50.82c0.47,0.06,0.7,0.09,1.17,0.15
			c-1.58-15.75-2.68-31.57-2.98-47.4C692.07,228.23,707.44,231.61,722.71,235.4z"/>
	</g>
</g>
<g>
	<path class="st3" d="M154.68,99.72c-10.12,5.88-16.04-1.13-24.15-5.7c-1.06-0.6-2.09-1.06-3.09-1.41v-4.88h-3.46l-1.67,3.91
		c-6.21-0.29-11.92,2.3-19.2,0.53c-6.88-1.66-12.8-5.09-14.65-11.84c-5.36-19.52,28.95-29.15,44.25-27.4
		c2.59,0.29,5.33,1.15,8.07,2.44C157.78,63.39,174.57,88.18,154.68,99.72z"/>
	<path class="st3" d="M187.13,49.58c-0.72,5.53-1.35,11.07-1.91,16.62c-0.26,0.18-0.52,0.36-0.79,0.52
		c-4.43,2.68-10.13,2.74-14.9,0.99c0,0-3.75-5.59-2.9-8.66c0.85-3.08,3.22-5.59,5.82-7.57C176.65,48.26,183.12,46.6,187.13,49.58z"
		/>
	<path class="st3" d="M176.93,27.79c1.52-4.01,2.65-8.36,1.27-12.49c-1.38-4.13-6.02-7.86-11.05-7.47
		c-4.39,0.35-7.52,3.51-9.83,6.61c-2.31,3.1-4.29,6.38-5.92,9.79c-1.76,3.71-3.11,7.83-1.77,11.75
		C155.36,52.76,174.02,35.46,176.93,27.79z"/>
	<path class="st3" d="M137.66,32.41c0,0-9.98,2.83-13.91-0.6c-5.16-4.52-4.35-17.65,0.41-26.02h20.77c0.79,1.67,1.26,3.48,1.46,5.27
		C147.27,18.67,144,26.65,137.66,32.41z"/>
	<path class="st3" d="M104.65,37.59c-2.18,2.18-5.31,3.23-9.55,2.27c-2.97-0.67-5.08-2.11-6.49-4.02L100.86,9.9
		c2.24,0.79,4.03,2.67,5.26,4.69C109.67,20.45,109.94,32.32,104.65,37.59z"/>
</g>
<g>
	<path class="st3" d="M162.14,264.27c-9.11,2.79-12.51-3.87-18.1-8.99c-6.84-6.27-13.67-2.64-21.4-6.53
		c-5.14-2.6-9.2-6.41-9.42-12.11c-0.03-0.86,0.02-1.69,0.14-2.47c17.84,0.77,36.96,2.98,56.93,7.25
		C174.1,250.83,173.24,260.88,162.14,264.27z"/>
	<path class="st3" d="M187.23,216.5c-1.74,1.1-3.68,2.08-5.61,2.74h-0.01c-3.5-0.82-7.01-1.59-10.53-2.3
		c-0.59-1.06-1-2.42-1.17-4.13c-0.33-3.36,1.5-6.38,3.58-8.99c1.92-2.41,4.1-4.64,6.51-6.67c1.38-1.17,2.99-2.31,4.78-2.95
		C185.47,201.63,186.29,209.06,187.23,216.5z"/>
	<path class="st3" d="M161.1,207.76c6.09-3.39,10.16-9.12,10.87-15.31c0.38-3.3-0.27-6.92-2.88-9.56
		c-11.12-11.21-24.56,13.94-18.9,21.83C152.66,208.16,161.1,207.76,161.1,207.76z"/>
	<path class="st3" d="M133.96,205.76c-1.8,1.11-3.97,1.47-6.52,0.63v-21.88c2.15-1.72,4.81-2.85,7.35-2.02
		c2.36,0.76,3.85,3.02,4.59,5.31C141.11,193.1,139.14,202.56,133.96,205.76z"/>
</g>
<g>
	<path class="st3" d="M56.4,212.16c-2.72,0.3-5.43,0.63-8.15,0.99c-8.89,1.19-17.35,2.62-25.33,4.22c-5.04,1-9.89,2.08-14.53,3.19
		c-0.01-0.8,0.04-1.64,0.15-2.52c1.16-9.03,8.29-9.37,14.95-12.22c8.15-3.48,7.68-10.86,14.12-16.05c4.28-3.46,9.19-5.49,14.24-3.44
		C61.12,190.1,60.34,201.87,56.4,212.16z"/>
	<path class="st3" d="M21.29,242.35c-3.34,2.12-6,5.67-6.44,9.67c-0.44,4,1.7,8.29,5.35,9.57c6.23,2.19,9.73-4.36,9.73-9.75
		c0-2.54-0.43-5.19-1.92-7.17C26.51,242.68,21.29,242.35,21.29,242.35z"/>
	<path class="st3" d="M42.44,265.8c1.76,2.83,3.9,5.59,7.11,6.69c3.2,1.1,7.7,0,9.84-3.29c1.86-2.87,1.39-6.31,0.57-9.2
		c-0.82-2.89-1.91-5.67-3.25-8.29c-1.45-2.84-3.36-5.63-6.42-6.65C37.22,240.67,39.07,260.38,42.44,265.8z"/>
	<path class="st3" d="M76.66,256.12c-3.33,1.24-6.73,0.38-9.46-1.25c-5.11-3.06-8.49-8.85-9.05-15.49c0,0,0.65-1.63,1.75-3.46
		c4.61-0.5,9.4-0.93,14.35-1.27C81.37,240.7,86.57,252.43,76.66,256.12z"/>
</g>
</svg>
