<svg preserveAspectRatio="meet" xmlns="http://www.w3.org/2000/svg" viewBox="0 0 814.89 2808.09"><defs><style>.cls-1{opacity:0.42;}.cls-2{fill:#f4d5a8;}</style></defs><g id="Layer_1" data-name="Layer 1"><g class="cls-1"><path class="cls-2" d="M549.84,2477.67c-8.67,7.37-7.45,17.38-18.68,22.51-9.17,4.18-19.19,5-20.14,17.32-1.88,24.25,31,25,48.8,15.3a27.76,27.76,0,0,0,7.22-5.45c11.08-12.12,23.62-47.63,2.62-55C562.39,2469.77,555.62,2472.77,549.84,2477.67Z"/><path class="cls-2" d="M543.71,2562.5c-.19-3.46-1-7-3.26-9.67s-9.64-2.84-9.64-2.84c-4.54,3.05-8,8-8.35,13.46s3,11.21,8.27,12.78C539.68,2578.92,544.11,2569.85,543.71,2562.5Z"/><path class="cls-2" d="M571.9,2552.36c-18.75-5.38-14.65,21.36-9.5,28.58,2.69,3.78,5.92,7.43,10.52,8.78s10.86-.35,13.62-4.93c2.41-4,1.48-8.64.11-12.54a62.76,62.76,0,0,0-5.2-11.13C579.18,2557.31,576.28,2553.62,571.9,2552.36Z"/><path class="cls-2" d="M582.56,2544.25c1.28,9,6.49,16.74,13.92,20.66,4,2.1,8.83,3.11,13.43,1.27,19.54-7.82-5.51-36.47-18.19-33.56C586.18,2533.89,582.56,2544.25,582.56,2544.25Z"/><path class="cls-2" d="M598.33,2512.59c1.49,7.81,12.42,14.88,19.93,15.43,3.24.23,6.81-.44,8.92-2.9,3-3.45,1.87-8.8-.18-12.87-4.27-8.45-15.7-17.26-24.8-9.29C598.71,2506,597.72,2509.37,598.33,2512.59Z"/><path class="cls-2" d="M703.49,2607.81c-8.68,7.37-7.46,17.38-18.68,22.51-9.17,4.18-19.2,5-20.15,17.32-1.88,24.25,31,25,48.81,15.3a27.93,27.93,0,0,0,7.22-5.45c11.07-12.12,23.62-47.63,2.62-55C716,2599.91,709.26,2602.91,703.49,2607.81Z"/><path class="cls-2" d="M697.35,2692.64c-.19-3.45-1-7-3.25-9.67s-9.64-2.84-9.64-2.84c-4.55,3-8,8-8.35,13.47s3,11.2,8.26,12.77C693.32,2709.06,697.75,2700,697.35,2692.64Z"/><path class="cls-2" d="M725.54,2682.5c-18.75-5.38-14.65,21.36-9.5,28.58,2.69,3.78,5.93,7.43,10.53,8.78s10.86-.35,13.61-4.93c2.41-4,1.49-8.64.11-12.54a62.06,62.06,0,0,0-5.2-11.13C732.83,2687.46,729.93,2683.76,725.54,2682.5Z"/><path class="cls-2" d="M736.2,2674.39c1.28,9,6.49,16.74,13.93,20.66,4,2.1,8.82,3.11,13.43,1.27,19.53-7.82-5.52-36.47-18.19-33.56C739.83,2664,736.2,2674.39,736.2,2674.39Z"/><path class="cls-2" d="M752,2642.73c1.49,7.81,12.42,14.88,19.92,15.43,3.24.23,6.81-.44,8.93-2.9,3-3.45,1.87-8.8-.19-12.87-4.27-8.45-15.7-17.26-24.79-9.28C752.35,2636.17,751.36,2639.51,752,2642.73Z"/><path class="cls-2" d="M413.41,2364.62c-8.68,7.36-7.46,17.38-18.69,22.5-9.16,4.19-19.19,5-20.14,17.32-1.88,24.25,31,25,48.81,15.31a27.7,27.7,0,0,0,7.21-5.45c11.08-12.12,23.62-47.63,2.63-55C426,2356.72,419.18,2359.71,413.41,2364.62Z"/><path class="cls-2" d="M407.27,2449.45c-.19-3.46-1-7-3.25-9.67s-9.64-2.84-9.64-2.84c-4.55,3-8,8-8.35,13.46s3,11.2,8.26,12.78C403.24,2465.86,407.67,2456.8,407.27,2449.45Z"/><path class="cls-2" d="M435.46,2439.3c-18.75-5.38-14.65,21.37-9.5,28.59,2.69,3.78,5.93,7.43,10.53,8.78s10.86-.36,13.61-4.93c2.41-4,1.49-8.65.11-12.54a61.83,61.83,0,0,0-5.2-11.14C442.75,2444.26,439.84,2440.56,435.46,2439.3Z"/><path class="cls-2" d="M446.12,2431.19c1.28,9,6.49,16.75,13.93,20.67,4,2.09,8.82,3.11,13.43,1.27,19.53-7.83-5.52-36.47-18.19-33.56C449.75,2420.84,446.12,2431.19,446.12,2431.19Z"/><path class="cls-2" d="M461.9,2399.54c1.49,7.81,12.41,14.88,19.92,15.42,3.24.24,6.81-.43,8.93-2.89,3-3.46,1.87-8.8-.19-12.87-4.27-8.45-15.7-17.26-24.8-9.29C462.27,2393,461.28,2396.32,461.9,2399.54Z"/><path class="cls-2" d="M295.65,2225c-8.68,7.36-7.46,17.38-18.68,22.5-9.17,4.19-19.19,5-20.15,17.32-1.87,24.25,31,25,48.81,15.31a27.76,27.76,0,0,0,7.22-5.45c11.07-12.12,23.62-47.63,2.62-55C308.2,2217.05,301.42,2220,295.65,2225Z"/><path class="cls-2" d="M289.51,2309.78c-.19-3.46-1-7-3.25-9.67s-9.64-2.84-9.64-2.84c-4.55,3.05-8,8-8.35,13.46s3,11.2,8.26,12.78C285.48,2326.19,289.92,2317.13,289.51,2309.78Z"/><path class="cls-2" d="M317.7,2299.63c-18.75-5.38-14.65,21.37-9.5,28.59,2.7,3.78,5.93,7.43,10.53,8.78s10.86-.35,13.62-4.93c2.41-4,1.48-8.65.11-12.54a61.87,61.87,0,0,0-5.21-11.14C325,2304.59,322.09,2300.89,317.7,2299.63Z"/><path class="cls-2" d="M328.36,2291.52c1.29,9,6.49,16.75,13.93,20.67,4,2.09,8.83,3.11,13.43,1.27,19.53-7.83-5.51-36.47-18.19-33.56C332,2281.17,328.36,2291.52,328.36,2291.52Z"/><path class="cls-2" d="M344.14,2259.87c1.49,7.81,12.42,14.88,19.93,15.42,3.23.24,6.8-.43,8.92-2.89,3-3.45,1.87-8.8-.18-12.87-4.27-8.45-15.71-17.26-24.8-9.29C344.51,2253.31,343.53,2256.65,344.14,2259.87Z"/><path class="cls-2" d="M191.79,2031.31c-8.68,7.37-7.45,17.39-18.68,22.51-9.17,4.18-19.19,5-20.15,17.32-1.87,24.25,31,25,48.81,15.3A27.54,27.54,0,0,0,209,2081c11.08-12.11,23.62-47.63,2.62-55C204.34,2023.41,197.57,2026.41,191.79,2031.31Z"/><path class="cls-2" d="M185.66,2116.15c-.19-3.46-1-7.05-3.26-9.67s-9.64-2.84-9.64-2.84c-4.55,3-8,8-8.35,13.46s3,11.2,8.27,12.77C181.62,2132.56,186.06,2123.49,185.66,2116.15Z"/><path class="cls-2" d="M213.84,2106c-18.74-5.38-14.65,21.36-9.5,28.59,2.7,3.77,5.93,7.42,10.53,8.78s10.86-.36,13.62-4.93c2.41-4,1.48-8.65.11-12.55a62.1,62.1,0,0,0-5.21-11.13C221.13,2111,218.23,2107.26,213.84,2106Z"/><path class="cls-2" d="M224.51,2097.89c1.28,9,6.49,16.74,13.92,20.67,4,2.09,8.83,3.1,13.43,1.26,19.53-7.82-5.51-36.46-18.19-33.56C228.13,2087.54,224.51,2097.89,224.51,2097.89Z"/><path class="cls-2" d="M240.28,2066.23c1.49,7.81,12.42,14.88,19.93,15.43,3.24.23,6.81-.44,8.92-2.9,3-3.45,1.87-8.8-.18-12.87-4.27-8.45-15.71-17.26-24.8-9.28C240.66,2059.67,239.67,2063,240.28,2066.23Z"/><path class="cls-2" d="M137,1784.81c-8.67,7.37-7.45,17.38-18.68,22.51-9.16,4.18-19.19,5-20.14,17.32-1.88,24.25,31,25,48.81,15.3a27.65,27.65,0,0,0,7.21-5.45c11.08-12.12,23.62-47.63,2.62-55C149.57,1776.91,142.8,1779.91,137,1784.81Z"/><path class="cls-2" d="M130.89,1869.64c-.19-3.45-1-7-3.26-9.67s-9.64-2.84-9.64-2.84c-4.54,3-8,8-8.35,13.47s3,11.2,8.27,12.77C126.86,1886.06,131.29,1877,130.89,1869.64Z"/><path class="cls-2" d="M159.08,1859.5c-18.75-5.38-14.65,21.36-9.5,28.58,2.69,3.78,5.92,7.43,10.52,8.78s10.86-.35,13.62-4.92c2.41-4,1.48-8.65.11-12.55a62.76,62.76,0,0,0-5.2-11.13C166.36,1864.46,163.46,1860.76,159.08,1859.5Z"/><path class="cls-2" d="M169.74,1851.39c1.28,9,6.49,16.74,13.92,20.66,4,2.1,8.83,3.11,13.43,1.27,19.54-7.82-5.51-36.47-18.19-33.56C173.37,1841,169.74,1851.39,169.74,1851.39Z"/><path class="cls-2" d="M185.51,1819.73c1.49,7.81,12.42,14.88,19.93,15.43,3.24.23,6.81-.44,8.92-2.9,3-3.45,1.87-8.8-.18-12.87-4.27-8.45-15.7-17.26-24.8-9.28C185.89,1813.17,184.9,1816.51,185.51,1819.73Z"/><path class="cls-2" d="M158.37,1521.23c-8.68,7.37-7.46,17.38-18.68,22.51-9.17,4.18-19.19,5-20.15,17.32-1.87,24.25,31,25,48.81,15.3a27.54,27.54,0,0,0,7.22-5.45c11.07-12.12,23.62-47.63,2.62-55C170.92,1513.33,164.14,1516.33,158.37,1521.23Z"/><path class="cls-2" d="M152.23,1606.06c-.19-3.45-1-7-3.25-9.67s-9.64-2.84-9.64-2.84c-4.55,3-8,8-8.35,13.47s3,11.2,8.26,12.77C148.2,1622.48,152.64,1613.41,152.23,1606.06Z"/><path class="cls-2" d="M180.42,1595.92c-18.74-5.38-14.65,21.36-9.5,28.58,2.7,3.78,5.93,7.43,10.53,8.78s10.86-.35,13.62-4.92c2.41-4,1.48-8.65.11-12.55a62.1,62.1,0,0,0-5.21-11.13C187.71,1600.88,184.81,1597.18,180.42,1595.92Z"/><path class="cls-2" d="M191.08,1587.81c1.29,9,6.49,16.74,13.93,20.66,4,2.1,8.83,3.11,13.43,1.27,19.53-7.82-5.51-36.47-18.19-33.56C194.71,1577.45,191.08,1587.81,191.08,1587.81Z"/><path class="cls-2" d="M206.86,1556.15c1.49,7.81,12.42,14.88,19.93,15.43,3.23.23,6.8-.44,8.92-2.9,3-3.45,1.87-8.8-.18-12.87-4.27-8.45-15.71-17.26-24.8-9.28C207.23,1549.59,206.25,1552.93,206.86,1556.15Z"/><path class="cls-2" d="M217.69,1339.48c-8.68,7.37-7.46,17.38-18.68,22.51-9.17,4.18-19.2,5-20.15,17.32-1.87,24.25,31,25,48.81,15.3a27.93,27.93,0,0,0,7.22-5.45c11.07-12.12,23.62-47.63,2.62-55C230.24,1331.58,223.46,1334.58,217.69,1339.48Z"/><path class="cls-2" d="M211.55,1424.31c-.19-3.46-1-7-3.25-9.67s-9.64-2.84-9.64-2.84c-4.55,3-8,8-8.35,13.46s3,11.21,8.26,12.78C207.52,1440.73,212,1431.66,211.55,1424.31Z"/><path class="cls-2" d="M239.74,1414.17c-18.75-5.38-14.65,21.36-9.5,28.58,2.69,3.78,5.93,7.43,10.53,8.78s10.86-.35,13.62-4.93c2.4-4,1.48-8.64.1-12.54a62.06,62.06,0,0,0-5.2-11.13C247,1419.13,244.13,1415.43,239.74,1414.17Z"/><path class="cls-2" d="M250.4,1406.06c1.28,9,6.49,16.74,13.93,20.66,4,2.1,8.82,3.11,13.43,1.27,19.53-7.82-5.51-36.47-18.19-33.56C254,1395.7,250.4,1406.06,250.4,1406.06Z"/><path class="cls-2" d="M266.18,1374.4c1.49,7.81,12.42,14.88,19.93,15.43,3.23.23,6.8-.44,8.92-2.9,3-3.45,1.87-8.8-.19-12.87-4.26-8.45-15.7-17.26-24.79-9.29C266.55,1367.84,265.56,1371.18,266.18,1374.4Z"/><path class="cls-2" d="M301.84,1168c-8.68,7.36-7.46,17.38-18.68,22.51-9.17,4.18-19.19,5-20.15,17.31-1.87,24.25,31,25,48.81,15.31a27.76,27.76,0,0,0,7.22-5.45c11.07-12.12,23.62-47.63,2.62-55C314.39,1160.06,307.62,1163.06,301.84,1168Z"/><path class="cls-2" d="M295.7,1252.79c-.19-3.46-1-7-3.25-9.67s-9.64-2.84-9.64-2.84c-4.55,3-8,8-8.35,13.46s3,11.2,8.26,12.78C291.67,1269.21,296.11,1260.14,295.7,1252.79Z"/><path class="cls-2" d="M323.89,1242.64c-18.74-5.38-14.65,21.37-9.5,28.59,2.7,3.78,5.93,7.43,10.53,8.78s10.86-.35,13.62-4.93c2.41-4,1.48-8.65.11-12.54a61.46,61.46,0,0,0-5.21-11.13C331.18,1247.6,328.28,1243.9,323.89,1242.64Z"/><path class="cls-2" d="M334.56,1234.53c1.28,9,6.48,16.75,13.92,20.67,4,2.09,8.83,3.11,13.43,1.27,19.53-7.82-5.51-36.47-18.19-33.56C338.18,1224.18,334.56,1234.53,334.56,1234.53Z"/><path class="cls-2" d="M350.33,1202.88c1.49,7.81,12.42,14.88,19.93,15.42,3.23.24,6.8-.43,8.92-2.89,3-3.45,1.87-8.8-.18-12.87-4.27-8.45-15.71-17.26-24.8-9.29C350.7,1196.32,349.72,1199.66,350.33,1202.88Z"/><path class="cls-2" d="M398.49,1003.89c-8.68,7.36-7.46,17.38-18.68,22.5-9.17,4.19-19.2,5-20.15,17.32-1.88,24.25,31,25,48.81,15.31a27.7,27.7,0,0,0,7.21-5.45c11.08-12.12,23.63-47.63,2.63-55C411,996,404.26,999,398.49,1003.89Z"/><path class="cls-2" d="M392.35,1088.72c-.19-3.46-1-7-3.25-9.67s-9.64-2.84-9.64-2.84c-4.55,3-8,8-8.35,13.46s3,11.2,8.26,12.78C388.32,1105.13,392.75,1096.07,392.35,1088.72Z"/><path class="cls-2" d="M420.54,1078.57c-18.75-5.38-14.65,21.37-9.5,28.59,2.69,3.78,5.93,7.43,10.53,8.78s10.86-.36,13.61-4.93c2.41-4,1.49-8.65.11-12.55a62.06,62.06,0,0,0-5.2-11.13C427.83,1083.53,424.92,1079.83,420.54,1078.57Z"/><path class="cls-2" d="M431.2,1070.46c1.28,9,6.49,16.74,13.93,20.67,4,2.09,8.82,3.11,13.43,1.27,19.53-7.83-5.52-36.47-18.19-33.56C434.83,1060.11,431.2,1070.46,431.2,1070.46Z"/><path class="cls-2" d="M447,1038.81c1.49,7.81,12.42,14.88,19.92,15.42,3.24.24,6.81-.43,8.93-2.89,3-3.46,1.87-8.8-.19-12.87-4.27-8.45-15.7-17.26-24.79-9.29C447.35,1032.24,446.36,1035.59,447,1038.81Z"/><path class="cls-2" d="M495.29,844.49c-8.68,7.36-7.45,17.38-18.68,22.5-9.17,4.19-19.19,5-20.15,17.32-1.87,24.25,31,25,48.81,15.31a27.76,27.76,0,0,0,7.22-5.45c11.08-12.12,23.62-47.63,2.62-55C507.84,836.59,501.07,839.58,495.29,844.49Z"/><path class="cls-2" d="M489.16,929.32c-.19-3.46-1-7.05-3.26-9.67s-9.64-2.84-9.64-2.84c-4.55,3-8,8-8.35,13.46s3,11.2,8.27,12.78C485.12,945.73,489.56,936.67,489.16,929.32Z"/><path class="cls-2" d="M517.34,919.17c-18.74-5.38-14.65,21.37-9.5,28.59,2.7,3.78,5.93,7.43,10.53,8.78s10.86-.36,13.62-4.93c2.41-4,1.48-8.65.11-12.54a61.87,61.87,0,0,0-5.21-11.14C524.63,924.13,521.73,920.43,517.34,919.17Z"/><path class="cls-2" d="M528,911.06c1.28,9,6.49,16.75,13.92,20.67,4,2.09,8.83,3.11,13.43,1.27,19.53-7.83-5.51-36.47-18.19-33.56C531.63,900.71,528,911.06,528,911.06Z"/><path class="cls-2" d="M543.78,879.41c1.49,7.81,12.42,14.88,19.93,15.42,3.24.24,6.81-.43,8.92-2.89,3-3.46,1.87-8.8-.18-12.87-4.27-8.45-15.71-17.26-24.8-9.29C544.16,872.85,543.17,876.19,543.78,879.41Z"/><path class="cls-2" d="M579.92,687c-8.68,7.37-7.46,17.38-18.69,22.51-9.16,4.18-19.19,5-20.14,17.32-1.88,24.25,31,25,48.81,15.3a27.7,27.7,0,0,0,7.21-5.45c11.08-12.12,23.62-47.63,2.62-55C592.46,679.08,585.69,682.08,579.92,687Z"/><path class="cls-2" d="M573.78,771.81c-.19-3.45-1-7-3.26-9.67s-9.64-2.84-9.64-2.84c-4.54,3.05-8,8-8.34,13.47s3,11.2,8.26,12.77C569.75,788.23,574.18,779.16,573.78,771.81Z"/><path class="cls-2" d="M602,761.67c-18.75-5.38-14.65,21.36-9.5,28.58,2.69,3.78,5.92,7.43,10.52,8.78s10.86-.35,13.62-4.92c2.41-4,1.49-8.65.11-12.55a62.76,62.76,0,0,0-5.2-11.13C609.25,766.63,606.35,762.93,602,761.67Z"/><path class="cls-2" d="M612.63,753.56c1.28,9,6.49,16.74,13.92,20.66,4,2.1,8.83,3.11,13.43,1.27,19.54-7.82-5.51-36.47-18.18-33.56C616.26,743.2,612.63,753.56,612.63,753.56Z"/><path class="cls-2" d="M628.4,721.9c1.5,7.81,12.42,14.88,19.93,15.43,3.24.23,6.81-.44,8.93-2.9,3-3.45,1.86-8.8-.19-12.87-4.27-8.45-15.7-17.26-24.8-9.28C628.78,715.34,627.79,718.68,628.4,721.9Z"/><path class="cls-2" d="M640,528.59c-8.68,7.37-7.46,17.38-18.68,22.51-9.17,4.18-19.2,5-20.15,17.32-1.87,24.25,31,25,48.81,15.3a27.54,27.54,0,0,0,7.22-5.45c11.07-12.12,23.62-47.63,2.62-55C652.57,520.69,645.79,523.69,640,528.59Z"/><path class="cls-2" d="M633.88,613.43c-.19-3.46-1-7-3.25-9.68s-9.64-2.83-9.64-2.83c-4.55,3-8,8-8.35,13.46s3,11.2,8.26,12.77C629.85,629.84,634.29,620.77,633.88,613.43Z"/><path class="cls-2" d="M662.07,603.28c-18.75-5.38-14.65,21.36-9.5,28.59,2.7,3.77,5.93,7.42,10.53,8.77s10.86-.35,13.62-4.92c2.41-4,1.48-8.65.11-12.55A62.1,62.1,0,0,0,671.62,612C669.36,608.24,666.46,604.54,662.07,603.28Z"/><path class="cls-2" d="M672.73,595.17c1.28,9,6.49,16.74,13.93,20.66,4,2.1,8.83,3.11,13.43,1.27,19.53-7.82-5.51-36.47-18.19-33.56C676.36,584.82,672.73,595.17,672.73,595.17Z"/><path class="cls-2" d="M688.51,563.51c1.49,7.81,12.42,14.88,19.93,15.43,3.23.23,6.8-.44,8.92-2.9,3-3.45,1.87-8.8-.18-12.87-4.27-8.45-15.71-17.26-24.8-9.28C688.88,557,687.89,560.3,688.51,563.51Z"/><path class="cls-2" d="M663.27,366.54c-8.68,7.37-7.46,17.38-18.68,22.51-9.17,4.18-19.2,5-20.15,17.32-1.88,24.25,31,25,48.81,15.3a27.71,27.71,0,0,0,7.22-5.45c11.07-12.12,23.62-47.63,2.62-55C675.82,358.64,669,361.64,663.27,366.54Z"/><path class="cls-2" d="M657.13,451.37c-.19-3.45-1-7-3.25-9.67s-9.64-2.84-9.64-2.84c-4.55,3.05-8,8-8.35,13.47s3,11.2,8.26,12.77C653.1,467.79,657.53,458.72,657.13,451.37Z"/><path class="cls-2" d="M685.32,441.23c-18.75-5.38-14.65,21.36-9.5,28.58,2.69,3.78,5.93,7.43,10.53,8.78s10.86-.35,13.61-4.92c2.41-4,1.49-8.65.11-12.55a62.06,62.06,0,0,0-5.2-11.13C692.61,446.19,689.71,442.49,685.32,441.23Z"/><path class="cls-2" d="M696,433.12c1.28,9,6.49,16.74,13.93,20.66,4,2.1,8.82,3.11,13.43,1.27,19.53-7.82-5.52-36.47-18.19-33.56C699.61,422.76,696,433.12,696,433.12Z"/><path class="cls-2" d="M711.76,401.46c1.49,7.81,12.42,14.88,19.92,15.43,3.24.23,6.81-.44,8.93-2.9,3-3.45,1.87-8.8-.19-12.87-4.27-8.45-15.7-17.26-24.79-9.28C712.13,394.9,711.14,398.24,711.76,401.46Z"/><path class="cls-2" d="M637.32,198.05c-8.68,7.37-7.45,17.38-18.68,22.51-9.17,4.18-19.19,5-20.15,17.32-1.87,24.25,31,25,48.81,15.3a27.76,27.76,0,0,0,7.22-5.45c11.08-12.12,23.62-47.63,2.62-55C649.87,190.15,643.1,193.15,637.32,198.05Z"/><path class="cls-2" d="M631.19,282.88c-.19-3.46-1-7-3.26-9.67s-9.64-2.84-9.64-2.84c-4.54,3.05-8,8-8.35,13.47s3,11.2,8.27,12.77C627.15,299.3,631.59,290.23,631.19,282.88Z"/><path class="cls-2" d="M659.37,272.74c-18.74-5.38-14.64,21.36-9.5,28.58,2.7,3.78,5.93,7.43,10.53,8.78s10.86-.35,13.62-4.93c2.41-4,1.48-8.64.11-12.54a62.1,62.1,0,0,0-5.21-11.13C666.66,277.7,663.76,274,659.37,272.74Z"/><path class="cls-2" d="M670,264.63c1.28,9,6.49,16.74,13.92,20.66,4,2.1,8.83,3.11,13.43,1.27,19.53-7.82-5.51-36.47-18.19-33.56C673.66,254.27,670,264.63,670,264.63Z"/><path class="cls-2" d="M685.81,233c1.49,7.81,12.42,14.88,19.93,15.43,3.24.23,6.81-.44,8.92-2.9,3-3.45,1.87-8.8-.18-12.87-4.27-8.45-15.71-17.26-24.8-9.29C686.19,226.41,685.2,229.75,685.81,233Z"/><path class="cls-2" d="M549.84,20.34c-8.67,7.37-7.45,17.38-18.68,22.51C522,47,512,47.83,511,60.17c-1.88,24.25,31,25,48.8,15.3A27.54,27.54,0,0,0,567,70c11.08-12.12,23.62-47.63,2.62-55C562.39,12.44,555.62,15.44,549.84,20.34Z"/><path class="cls-2" d="M543.71,105.18c-.19-3.46-1-7.05-3.26-9.68s-9.64-2.83-9.64-2.83c-4.54,3-8,8-8.35,13.46s3,11.2,8.27,12.77C539.68,121.59,544.11,112.52,543.71,105.18Z"/><path class="cls-2" d="M571.9,95c-18.75-5.38-14.65,21.36-9.5,28.59,2.69,3.77,5.92,7.42,10.52,8.77s10.86-.35,13.62-4.92c2.41-4,1.48-8.65.11-12.55a62.76,62.76,0,0,0-5.2-11.13C579.18,100,576.28,96.29,571.9,95Z"/><path class="cls-2" d="M582.56,86.92c1.28,9,6.49,16.74,13.92,20.66,4,2.1,8.83,3.11,13.43,1.27,19.54-7.82-5.51-36.47-18.19-33.56C586.18,76.57,582.56,86.92,582.56,86.92Z"/><path class="cls-2" d="M598.33,55.26c1.49,7.81,12.42,14.88,19.93,15.43,3.24.23,6.81-.44,8.92-2.9,3-3.45,1.87-8.8-.18-12.87-4.27-8.45-15.7-17.26-24.8-9.28C598.71,48.7,597.72,52.05,598.33,55.26Z"/></g></g></svg>